<svg width="100" height="100" viewBox="0 0 100 100" xmlns="http://www.w3.org/2000/svg" xml:space="preserve" version="1.1">
  <g transform="translate(0,0) scale(1,1)">
    <path d="M84.093 42.278c-.012-1.297-.509-2.56-1.75-2.908-1.59-.444-1.821-1.453-1.946-2.8-.385-4.136-2.64-6.636-6.62-7.896a80 80 0 0 0-10.931-2.604c-.892-.15-1.374-.352-1.581-1.374-.372-1.844-1.572-2.842-3.572-2.866-.756-.01-2.165.582-2.175-.618-.014-1.6-1.273-3.458.519-4.854 1.6-1.25 2.47-2.787 2.118-4.867-.137-1.18-1.088-3.467-4.784-3.957a4.29 4.29 0 0 0-3.53 1.15c-2.276 2.2-2.431 4.87-.216 6.812 1.661 1.454 1.661 2.815 1.501 4.662-.125 1.412-.575 1.835-1.93 1.72-2.08-.174-3.315.97-3.686 2.913-.184.96-.657 1.12-1.457 1.257-3.627.622-7.2 1.429-10.732 2.514-3.03.93-5.217 2.604-6.522 5.464-.99 1.246-.538 2.753-.75 4.14.069.524-.263.692-.688.807-2.074.56-2.743 2.049-2.679 4.096q.128 3.857.006 7.713c-.058 1.803.587 3.222 2.312 3.782 1.067.346 1.28 1.023 1.331 1.951.269 4.708 2.868 7.318 7.293 8.687 13.142 4.066 26.222 4.08 39.377.062 4.48-1.369 7.217-3.942 7.466-8.762.055-1.062.48-1.644 1.544-2.022 1.377-.486 2.075-1.665 2.087-3.146q.032-4.527-.005-9.056m-12.08 10.087c-.24 1.425-.66 2.953-1.914 3.628-1.971 1.06-4.24 2.289-11.871 3.01-4.832.647-12.4.183-18.204-1.346-3.533-.932-5.078-2.676-5.415-6.335-.277-3.006-.223-6.032-.013-9.045.228-3.263 1.971-5.368 5.12-6.18 8.998-2.32 18.031-2.4 27.03-.064 3.887 1.01 5.333 2.924 5.496 6.902.13 3.143.31 6.299-.226 9.43z M48.118 47.455c-.72.045-1.566.595-1.262 1.96.252 1.135-.32 1.101-1.066 1.021-1.856-.198-3.28-1.857-3.216-3.736.065-1.84 1.628-3.404 3.48-3.486 1.958-.088 3.6 1.244 3.8 3.09.118 1.082.014 1.186-1.736 1.151M56.932 46.855c-.008-1.968 1.366-3.474 3.307-3.623 1.96-.15 3.804 1.295 3.967 3.175.057.67.34 1.531-1.067 1.15-1.391-.372-2.271.423-1.98 1.885.24 1.186-.365 1.071-1.075.991-1.829-.208-3.146-1.711-3.152-3.578M26.949 64.697c6.24 9.903 14.88 15.528 26.683 15.422 11.74-.105 20.254-5.86 26.22-15.81q-1.13 4.653-2.255 9.307a43 43 0 0 1-1.265 4.27c-2.275 7.2-4.906 14.179-8.656 20.69-2.198 3.817-4.68 7.413-8.247 10.12-3.854 2.92-8.29 2.926-12.132.014s-6.444-6.804-8.72-10.939c-4.455-8.074-7.475-16.71-9.808-25.6-.658-2.48-1.218-4.981-1.82-7.474M94.913 57.035c4.135-.03 5.44 1.96 4.365 5.873-.834 3.04-2.262 5.804-4.386 8.16-2.216 2.46-5.246 2.929-7.879.928-1.36-1.032-2.544-2.448-3.423-3.92-1.32-2.212-.782-5.025 1.136-6.67 3.105-2.662 6.774-4.053 10.187-4.37M10.637 57.035c-4.135-.03-5.44 1.96-4.364 5.873.833 3.04 2.261 5.804 4.386 8.16 2.215 2.46 5.246 2.929 7.879.928 1.36-1.032 2.544-2.448 3.422-3.92 1.32-2.212.783-5.025-1.135-6.67-3.11-2.662-6.778-4.053-10.188-4.37"/>
   </g>
</svg>